<?xml version="1.0" encoding="utf-8"?>
<!-- Generator: Adobe Illustrator 16.0.4, SVG Export Plug-In . SVG Version: 6.00 Build 0)  -->
<!DOCTYPE svg PUBLIC "-//W3C//DTD SVG 1.1//EN" "http://www.w3.org/Graphics/SVG/1.1/DTD/svg11.dtd">
<svg version="1.1" xmlns="http://www.w3.org/2000/svg" xmlns:xlink="http://www.w3.org/1999/xlink" x="0px" y="0px" width="540px"
	 height="468px" viewBox="0 0 540 468" enable-background="new 0 0 540 468" xml:space="preserve">
<g id="Layer_1_copy" display="none">
	<g id="Layer_3_copy" display="inline">
		<g>
			<g>
				<line fill="none" stroke="#BBBDBF" stroke-width="3" stroke-miterlimit="10" x1="252" y1="72" x2="252" y2="73.5"/>
				
					<line fill="none" stroke="#BBBDBF" stroke-width="3" stroke-miterlimit="10" stroke-dasharray="2.9719,2.9719" x1="252" y1="76.472" x2="252" y2="384.06"/>
				<line fill="none" stroke="#BBBDBF" stroke-width="3" stroke-miterlimit="10" x1="252" y1="385.545" x2="252" y2="387.045"/>
				<g>
					<polygon fill="#BBBDBF" points="246.445,382.833 252,385.192 257.555,382.833 252,396 					"/>
				</g>
			</g>
		</g>
		<g>
			<g>
				<polyline fill="none" stroke="#D0D2D3" stroke-width="3" stroke-miterlimit="10" stroke-dasharray="6,6" points="252,432 
					252,459 504,459 504,9 252,9 252,25.409 				"/>
				<g>
					<polygon fill="#D0D2D3" points="252,36 245.902,21.076 252,24.617 258.097,21.076 					"/>
				</g>
			</g>
		</g>
	</g>
	<g display="inline">
		<path fill="#6D6E70" d="M468,136.8c0,3.977-3.224,7.2-7.2,7.2H43.2c-3.977,0-7.2-3.224-7.2-7.2v-21.6c0-3.977,3.224-7.2,7.2-7.2
			h417.6c3.977,0,7.2,3.224,7.2,7.2V136.8z"/>
		<path fill="#4B68B0" d="M36,64.8c0,3.977,3.224,7.2,7.2,7.2h417.6c3.977,0,7.2-3.224,7.2-7.2V43.2c0-3.977-3.224-7.2-7.2-7.2H43.2
			c-3.977,0-7.2,3.224-7.2,7.2V64.8z"/>
		<path fill="#97509E" d="M36,208.8c0,3.977,3.224,7.2,7.2,7.2h417.6c3.977,0,7.2-3.224,7.2-7.2v-21.6c0-3.977-3.224-7.2-7.2-7.2
			H43.2c-3.977,0-7.2,3.224-7.2,7.2V208.8z"/>
		<path fill="#6D6E70" d="M468,280.8c0,3.977-3.224,7.2-7.2,7.2H43.2c-3.977,0-7.2-3.224-7.2-7.2v-21.6c0-3.977,3.224-7.2,7.2-7.2
			h417.6c3.977,0,7.2,3.224,7.2,7.2V280.8z"/>
		<path fill="#6D6E70" d="M468,352.8c0,3.977-3.224,7.2-7.2,7.2H43.2c-3.977,0-7.2-3.224-7.2-7.2v-21.6c0-3.977,3.224-7.2,7.2-7.2
			h417.6c3.977,0,7.2,3.224,7.2,7.2V352.8z"/>
		<path fill="#4B68B0" d="M36,424.8c0,3.977,3.224,7.2,7.2,7.2h417.6c3.977,0,7.2-3.224,7.2-7.2v-21.6c0-3.977-3.224-7.2-7.2-7.2
			H43.2c-3.977,0-7.2,3.224-7.2,7.2V424.8z"/>
	</g>
	<g id="Layer_2_copy" display="inline">
		<rect x="187.201" y="36" fill="none" width="129.6" height="36"/>
		<text transform="matrix(1 0 0 1 233.7847 58.3799)" fill="#FFFFFF" font-family="'MyriadPro-Bold'" font-size="18">User</text>
		<rect x="43.201" y="108" fill="none" width="417.6" height="36"/>
		<text transform="matrix(1 0 0 1 211.4927 130.3799)" fill="#FFFFFF" font-family="'MyriadPro-Bold'" font-size="18">Javascript</text>
		<rect x="187.201" y="180" fill="none" width="129.6" height="36"/>
		<text transform="matrix(1 0 0 1 211.1411 202.3799)" fill="#FFFFFF" font-family="'MyriadPro-Bold'" font-size="18">Controller</text>
		<rect x="43.201" y="252" fill="none" width="417.6" height="36"/>
		<text transform="matrix(1 0 0 1 230.7793 274.3799)" fill="#FFFFFF" font-family="'MyriadPro-Bold'" font-size="18">JSON</text>
		<rect x="43.201" y="324" fill="none" width="417.6" height="36"/>
		<text transform="matrix(1 0 0 1 211.4927 346.3799)" fill="#FFFFFF" font-family="'MyriadPro-Bold'" font-size="18">Javascript</text>
		<rect x="187.201" y="396" fill="none" width="129.6" height="36"/>
		<text transform="matrix(1 0 0 1 233.7847 418.3799)" fill="#FFFFFF" font-family="'MyriadPro-Bold'" font-size="18">User</text>
	</g>
</g>
<g id="Layer_1">
	<g id="Layer_3">
		<g>
			<g>
				<line fill="none" stroke="#BBBDBF" stroke-width="3" stroke-miterlimit="10" x1="108" y1="72" x2="108" y2="73.5"/>
				
					<line fill="none" stroke="#BBBDBF" stroke-width="3" stroke-miterlimit="10" stroke-dasharray="2.9719,2.9719" x1="108" y1="76.472" x2="108" y2="384.06"/>
				<line fill="none" stroke="#BBBDBF" stroke-width="3" stroke-miterlimit="10" x1="108" y1="385.545" x2="108" y2="387.045"/>
				<g>
					<polygon fill="#BBBDBF" points="102.445,382.833 108,385.192 113.555,382.833 108,396 					"/>
				</g>
			</g>
		</g>
		<g>
			<g>
				<line fill="none" stroke="#BBBDBF" stroke-width="3" stroke-miterlimit="10" x1="252" y1="72" x2="252" y2="73.5"/>
				
					<line fill="none" stroke="#BBBDBF" stroke-width="3" stroke-miterlimit="10" stroke-dasharray="2.9719,2.9719" x1="252" y1="76.472" x2="252" y2="384.06"/>
				<line fill="none" stroke="#BBBDBF" stroke-width="3" stroke-miterlimit="10" x1="252" y1="385.545" x2="252" y2="387.045"/>
				<g>
					<polygon fill="#BBBDBF" points="246.445,382.833 252,385.192 257.555,382.833 252,396 					"/>
				</g>
			</g>
		</g>
		<g>
			<g>
				<line fill="none" stroke="#BBBDBF" stroke-width="3" stroke-miterlimit="10" x1="396" y1="72" x2="396" y2="73.5"/>
				
					<line fill="none" stroke="#BBBDBF" stroke-width="3" stroke-miterlimit="10" stroke-dasharray="2.9719,2.9719" x1="396" y1="76.472" x2="396" y2="384.06"/>
				<line fill="none" stroke="#BBBDBF" stroke-width="3" stroke-miterlimit="10" x1="396" y1="385.545" x2="396" y2="387.045"/>
				<g>
					<polygon fill="#BBBDBF" points="390.445,382.833 396,385.192 401.555,382.833 396,396 					"/>
				</g>
			</g>
		</g>
		<g>
			<g>
				<polyline fill="none" stroke="#D0D2D3" stroke-width="3" stroke-miterlimit="10" stroke-dasharray="6,6" points="324,432 
					324,459 504,459 504,9 324,9 324,25.409 				"/>
				<g>
					<polygon fill="#D0D2D3" points="324,36 317.902,21.076 324,24.617 330.097,21.076 					"/>
				</g>
			</g>
		</g>
	</g>
	<g>
		<path fill="#6D6E70" d="M324,136.8c0,3.977-3.224,7.2-7.2,7.2H187.2c-3.977,0-7.2-3.224-7.2-7.2v-21.6c0-3.977,3.224-7.2,7.2-7.2
			h129.6c3.977,0,7.2,3.224,7.2,7.2V136.8z"/>
		<path fill="#6D6E70" d="M468,136.8c0,3.977-3.224,7.2-7.2,7.2H331.2c-3.977,0-7.2-3.224-7.2-7.2v-21.6c0-3.977,3.224-7.2,7.2-7.2
			h129.6c3.977,0,7.2,3.224,7.2,7.2V136.8z"/>
		<path fill="#6D6E70" d="M180,136.8c0,3.977-3.224,7.2-7.2,7.2H43.2c-3.977,0-7.2-3.224-7.2-7.2v-21.6c0-3.977,3.224-7.2,7.2-7.2
			h129.6c3.977,0,7.2,3.224,7.2,7.2V136.8z"/>
		<path fill="#4B68B0" d="M36,64.8c0,3.977,3.224,7.2,7.2,7.2h417.6c3.977,0,7.2-3.224,7.2-7.2V43.2c0-3.977-3.224-7.2-7.2-7.2H43.2
			c-3.977,0-7.2,3.224-7.2,7.2V64.8z"/>
		<path fill="#97509E" d="M36,208.8c0,3.977,3.224,7.2,7.2,7.2h417.6c3.977,0,7.2-3.224,7.2-7.2v-21.6c0-3.977-3.224-7.2-7.2-7.2
			H43.2c-3.977,0-7.2,3.224-7.2,7.2V208.8z"/>
		<path fill="#6D6E70" d="M468,280.8c0,3.977-3.224,7.2-7.2,7.2H331.2c-3.977,0-7.2-3.224-7.2-7.2v-21.6c0-3.977,3.224-7.2,7.2-7.2
			h129.6c3.977,0,7.2,3.224,7.2,7.2V280.8z"/>
		<path fill="#6D6E70" d="M324,280.8c0,3.977-3.224,7.2-7.2,7.2H43.2c-3.977,0-7.2-3.224-7.2-7.2v-21.6c0-3.977,3.224-7.2,7.2-7.2
			h273.6c3.977,0,7.2,3.224,7.2,7.2V280.8z"/>
		<path fill="#6D6E70" d="M468,352.8c0,3.977-3.224,7.2-7.2,7.2H331.2c-3.977,0-7.2-3.224-7.2-7.2v-21.6c0-3.977,3.224-7.2,7.2-7.2
			h129.6c3.977,0,7.2,3.224,7.2,7.2V352.8z"/>
		<path fill="#4B68B0" d="M36,424.8c0,3.977,3.224,7.2,7.2,7.2h417.6c3.977,0,7.2-3.224,7.2-7.2v-21.6c0-3.977-3.224-7.2-7.2-7.2
			H43.2c-3.977,0-7.2,3.224-7.2,7.2V424.8z"/>
	</g>
	<g id="Layer_2">
		<rect x="187.201" y="36" fill="none" width="129.6" height="36"/>
		<text transform="matrix(1 0 0 1 233.7847 58.3799)" fill="#FFFFFF" font-family="'MyriadPro-Bold'" font-size="18">User</text>
		<rect x="187.201" y="108" fill="none" width="129.6" height="36"/>
		<text transform="matrix(1 0 0 1 230.9048 130.3799)" fill="#FFFFFF" font-family="'MyriadPro-Bold'" font-size="18">Form</text>
		<rect x="331.201" y="108" fill="none" width="129.6" height="36"/>
		<text transform="matrix(1 0 0 1 355.4922 130.3799)" fill="#FFFFFF" font-family="'MyriadPro-Bold'" font-size="18">Javascript</text>
		<rect x="43.201" y="108" fill="none" width="129.6" height="36"/>
		<text transform="matrix(1 0 0 1 90.7837 130.3799)" fill="#FFFFFF" font-family="'MyriadPro-Bold'" font-size="18">Link</text>
		<rect x="187.201" y="180" fill="none" width="129.6" height="36"/>
		<text transform="matrix(1 0 0 1 211.1411 202.3799)" fill="#FFFFFF" font-family="'MyriadPro-Bold'" font-size="18">Controller</text>
		<rect x="331.201" y="252" fill="none" width="129.6" height="36"/>
		<text transform="matrix(1 0 0 1 374.7793 274.3799)" fill="#FFFFFF" font-family="'MyriadPro-Bold'" font-size="18">JSON</text>
		<rect x="115.2" y="252" fill="none" width="129.6" height="36"/>
		<text transform="matrix(1 0 0 1 156.6538 274.3799)" fill="#FFFFFF" font-family="'MyriadPro-Bold'" font-size="18">HTML</text>
		<rect x="331.201" y="324" fill="none" width="129.6" height="36"/>
		<text transform="matrix(1 0 0 1 355.4922 346.3799)" fill="#FFFFFF" font-family="'MyriadPro-Bold'" font-size="18">Javascript</text>
		<rect x="187.201" y="396" fill="none" width="129.6" height="36"/>
		<text transform="matrix(1 0 0 1 233.7847 418.3799)" fill="#FFFFFF" font-family="'MyriadPro-Bold'" font-size="18">User</text>
	</g>
</g>
</svg>
